<svg width="86" height="85" viewBox="0 0 86 85" fill="none" xmlns="http://www.w3.org/2000/svg">
<g clip-path="url(#clip0)">
<path d="M43.019 17.7083C44.9803 17.7083 46.5703 16.1227 46.5703 14.1667C46.5703 12.2107 44.9803 10.625 43.019 10.625C41.0577 10.625 39.4678 12.2107 39.4678 14.1667C39.4678 16.1227 41.0577 17.7083 43.019 17.7083Z" fill="#4B7FDB"/>
<path d="M82.0835 35.4167C84.0448 35.4167 85.6347 33.831 85.6347 31.875C85.6347 29.919 84.0448 28.3334 82.0835 28.3334C80.1222 28.3334 78.5322 29.919 78.5322 31.875C78.5322 33.831 80.1222 35.4167 82.0835 35.4167Z" fill="#4B7FDB"/>
<path d="M3.95554 35.4167C5.91684 35.4167 7.50679 33.831 7.50679 31.875C7.50679 29.919 5.91684 28.3334 3.95554 28.3334C1.99424 28.3334 0.404297 29.919 0.404297 31.875C0.404297 33.831 1.99424 35.4167 3.95554 35.4167Z" fill="#4B7FDB"/>
<path d="M10.9711 70.8333H75.0689L81.9983 39.7264C82.152 39.0363 82.0952 38.3161 81.8351 37.6585C81.5749 37.0009 81.1234 36.436 80.5387 36.0364C79.9539 35.6369 79.2626 35.421 78.5538 35.4166C77.845 35.4122 77.1511 35.6194 76.5613 36.0116L58.6 47.9523L46.1951 23.2076C45.9001 22.6194 45.4467 22.1247 44.8857 21.779C44.3248 21.4333 43.6784 21.2502 43.0189 21.2502C42.3595 21.2502 41.7131 21.4333 41.1521 21.779C40.5911 22.1247 40.1377 22.6194 39.8428 23.2076L27.4378 47.9523L9.47606 36.0116C8.88632 35.6196 8.19245 35.4125 7.48371 35.417C6.77498 35.4215 6.08381 35.6374 5.49913 36.0369C4.91444 36.4364 4.46301 37.0012 4.20289 37.6587C3.94278 38.3163 3.88588 39.0364 4.03954 39.7264L10.9711 70.8333Z" fill="#4B7FDB"/>
<path d="M11.0581 74.375V81.4583C11.0581 82.3976 11.4323 83.2985 12.0982 83.9627C12.7642 84.6269 13.6675 85 14.6094 85H71.4293C72.3712 85 73.2744 84.6269 73.9404 83.9627C74.6064 83.2985 74.9806 82.3976 74.9806 81.4583V74.375H11.0581Z" fill="#4B7FDB"/>
</g>
<defs>
<clipPath id="clip0">
<rect width="85.2299" height="85" fill="white" transform="translate(0.404297)"/>
</clipPath>
</defs>
</svg>
