<svg width="17" height="22" viewBox="0 0 17 22" fill="none" xmlns="http://www.w3.org/2000/svg">
<path fill-rule="evenodd" clip-rule="evenodd" d="M7.52283 13.7498C10.8411 13.7498 13.5311 11.0291 13.5311 7.67296C13.5311 4.31681 10.8411 1.59612 7.52283 1.59612C4.20453 1.59612 1.51453 4.31681 1.51453 7.67296C1.51453 11.0291 4.20453 13.7498 7.52283 13.7498ZM7.52283 15.269C11.6707 15.269 15.0332 11.8682 15.0332 7.67296C15.0332 3.47778 11.6707 0.0769043 7.52283 0.0769043C3.37496 0.0769043 0.0124512 3.47778 0.0124512 7.67296C0.0124512 11.8682 3.37496 15.269 7.52283 15.269Z" fill="white"/>
<path d="M10.6626 14.4159C10.4356 14.055 10.5407 13.5763 10.8975 13.3466C11.2543 13.1169 11.7276 13.2233 11.9547 13.5841L16.1303 20.2195C16.3574 20.5804 16.2523 21.0591 15.8955 21.2888C15.5387 21.5185 15.0653 21.4121 14.8382 21.0513L10.6626 14.4159Z" fill="white"/>
</svg>
