<?xml version="1.0" encoding="utf-8"?>
<!-- Generator: Adobe Illustrator 24.1.3, SVG Export Plug-In . SVG Version: 6.00 Build 0)  -->
<svg version="1.1" id="Слой_1" xmlns="http://www.w3.org/2000/svg" xmlns:xlink="http://www.w3.org/1999/xlink" x="0px" y="0px"
	 viewBox="0 0 300 150" style="enable-background:new 0 0 300 150;" xml:space="preserve">
<style type="text/css">
	.st0{fill:#FFFFFF;}
	.st1{fill:#2D313C;}
</style>
<g>
	<rect x="1.51" y="6.6" class="st0" width="79.18" height="143.4"/>
	<g>
		<path class="st1" d="M28.13,103.19v11.84H16.29v-11.84H28.13z"/>
		<path class="st1" d="M46.34,68.66h7.37c6.18,0,10.78,1.64,13.8,4.92c3.02,3.28,4.52,8.08,4.52,14.41v7.71
			c0,6.33-1.51,11.14-4.52,14.41c-3.02,3.28-7.62,4.92-13.8,4.92H34.05V36.82h32.51v11.17H46.34V68.66z M53.72,103.86
			c1.94,0,3.43-0.54,4.47-1.62c1.04-1.08,1.56-3,1.56-5.75v-9.27c0-2.75-0.52-4.67-1.56-5.75c-1.04-1.08-2.53-1.62-4.47-1.62h-7.37
			v24.02H53.72z"/>
	</g>
	<path class="st0" d="M86.59,36.82h12.29v78.21H86.59V36.82z"/>
	<path class="st0" d="M128.48,56.04c0-3.5-0.58-5.87-1.73-7.09c-1.16-1.23-2.7-1.84-4.64-1.84c-1.94,0-3.48,0.58-4.64,1.73
		c-1.16,1.16-1.73,3.15-1.73,5.98v8.38h-11.62v-7.6c0-6.33,1.54-11.19,4.64-14.58c3.09-3.39,7.65-5.08,13.69-5.08
		s10.6,1.69,13.69,5.08c3.09,3.39,4.64,8.25,4.64,14.58v2.01c0,8.34-2.87,13.71-8.6,16.09c3.13,1.34,5.34,3.41,6.65,6.2
		c1.3,2.79,1.96,6.2,1.96,10.22v6.14c0,6.33-1.55,11.19-4.64,14.58c-3.09,3.39-7.65,5.08-13.69,5.08s-10.6-1.69-13.69-5.08
		c-3.09-3.39-4.64-8.25-4.64-14.58v-9.83h11.62v10.61c0,2.83,0.58,4.82,1.73,5.98c1.15,1.16,2.7,1.73,4.64,1.73
		c1.94,0,3.48-0.59,4.64-1.79c1.15-1.19,1.73-3.54,1.73-7.04v-6.14c0-3.65-0.63-6.22-1.9-7.71c-1.27-1.49-3.32-2.23-6.15-2.23h-1.9
		V68.66h2.57c2.31,0,4.11-0.6,5.42-1.79c1.3-1.19,1.96-3.35,1.96-6.48V56.04z"/>
	<path class="st0" d="M158.2,115.03h-12.29V36.82h12.29v33.52h13.97V36.82h12.51v78.21h-12.51V81.51H158.2V115.03z"/>
	<path class="st0" d="M202.67,69.78h16.87v11.17h-16.87v22.9h21.23v11.17h-33.52V36.82h33.52v11.17h-21.23V69.78z"/>
	<path class="st0" d="M265.79,85.98v10.39c0,6.32-1.55,11.16-4.64,14.52c-3.09,3.35-7.65,5.03-13.69,5.03s-10.6-1.69-13.69-5.08
		c-3.09-3.39-4.64-8.25-4.64-14.58V55.59c0-6.33,1.54-11.19,4.64-14.58c3.09-3.39,7.65-5.08,13.69-5.08s10.59,1.69,13.69,5.08
		c3.09,3.39,4.64,8.25,4.64,14.58v7.6h-11.62v-8.38c0-2.83-0.58-4.82-1.73-5.98c-1.16-1.15-2.7-1.73-4.64-1.73
		c-1.94,0-3.48,0.58-4.64,1.74c-1.16,1.16-1.73,3.15-1.73,5.99v42.31c0,2.83,0.58,4.81,1.73,5.93c1.15,1.12,2.7,1.68,4.64,1.68
		c1.94,0,3.48-0.56,4.64-1.68c1.15-1.12,1.73-3.09,1.73-5.92V85.98H265.79z"/>
</g>
</svg>
