<svg width="66" height="66" viewBox="0 0 66 66" fill="none" xmlns="http://www.w3.org/2000/svg">
<path d="M60.3987 2.96538C56.4445 -0.988461 50.0338 -0.988461 46.0796 2.96538L5.93825 43.1032C5.66315 43.3783 5.46452 43.7192 5.36081 44.0936L0.0821045 63.1492C-0.134985 63.9305 0.0856199 64.7672 0.658666 65.341C1.23259 65.914 2.06931 66.1346 2.85066 65.9184L21.908 60.6393C22.2824 60.5356 22.6234 60.337 22.8985 60.0619L63.039 19.9232C66.987 15.9668 66.987 9.56186 63.039 5.60538L60.3987 2.96538ZM10.8408 44.5656L43.6934 11.715L54.2886 22.3092L21.4351 55.1598L10.8408 44.5656ZM8.72438 48.812L17.1891 57.2769L5.48034 60.5207L8.72438 48.812ZM59.8573 16.7419L57.4711 19.1279L46.875 8.53275L49.2621 6.14674C51.4585 3.95055 55.0198 3.95055 57.2162 6.14674L59.8573 8.78673C62.0502 10.9856 62.0502 14.5439 59.8573 16.7419Z" fill="#4B7FDB"/>
</svg>
