<svg width="54" height="62" viewBox="0 0 54 62" fill="none" xmlns="http://www.w3.org/2000/svg">
<path d="M53.8022 27.2796C53.3316 28.1713 52.3614 28.6822 51.3604 28.5653H39.7936V59.5536C39.7956 60.9028 38.7039 61.9983 37.3551 62C37.311 62 37.267 61.999 37.2232 61.9965H16.6598C15.313 62.0677 14.1637 61.0328 14.0928 59.6855C14.0906 59.6415 14.0894 59.5977 14.0894 59.5536V28.5653H2.52262C1.25033 28.681 0.125134 27.7425 0.00951531 26.4696C-0.0546899 25.7633 0.208527 25.0668 0.723399 24.5792L25.1423 0.79147C26.054 -0.202835 27.5988 -0.269283 28.5924 0.643063C28.6441 0.690319 28.6935 0.740032 28.7407 0.79147L53.1596 24.8364C53.9512 25.3776 54.225 26.4187 53.8022 27.2796ZM26.9413 5.67759L8.8199 23.422H16.6596C18.0733 23.422 19.23 25.2221 19.23 26.6365V56.8535H34.6525V26.6365C34.6525 25.2221 35.8092 23.422 37.223 23.422H45.0626L26.9413 5.67759Z" fill="#4B7FDB"/>
</svg>
