<svg width="75" height="72" viewBox="0 0 75 72" fill="none" xmlns="http://www.w3.org/2000/svg">
<path d="M72.6452 25.3423L50.1521 22.0913L40.0304 1.59538C39.3536 0.190111 37.6719 -0.397265 36.2743 0.283453C35.7049 0.560772 35.245 1.02288 34.9695 1.59538L24.8477 22.0913L2.35472 25.3423C1.28943 25.5136 0.41545 26.2822 0.105469 27.3212C-0.167918 28.3222 0.0984725 29.3942 0.808308 30.1482L17.1157 46.121L13.32 68.5958C13.1492 69.6745 13.5811 70.7602 14.4448 71.4228C15.2954 72.0735 16.4395 72.1831 17.3969 71.7055L37.4999 60.9628L57.603 71.7055L58.8682 71.9883C59.4839 72.0407 60.0939 71.8362 60.5551 71.4228C61.4186 70.7602 61.8507 69.6745 61.6798 68.5958L57.8842 46.121L74.1916 30.1482C74.9014 29.3942 75.1681 28.3222 74.8944 27.3212C74.5844 26.2825 73.7104 25.5136 72.6452 25.3423ZM52.8233 43.1527C52.248 43.8102 51.9908 44.6897 52.1205 45.5558L55.2133 63.9314L38.7652 55.309C37.9644 54.927 37.0355 54.927 36.2347 55.309L19.7866 63.9314L22.8794 45.5558C23.0091 44.6897 22.7519 43.8104 22.1766 43.1527L8.82127 30.1485L27.2375 27.4627C28.1426 27.3028 28.9224 26.7278 29.3462 25.9078L37.4999 9.22829L45.6536 25.9078C46.0774 26.7278 46.857 27.3028 47.7624 27.4627L66.1786 30.1485L52.8233 43.1527Z" fill="#4B7FDB"/>
</svg>
