<svg width="77" height="76" viewBox="0 0 77 76" fill="none" xmlns="http://www.w3.org/2000/svg">
<g clip-path="url(#clip0)">
<path d="M47.8819 49.3437C49.3094 46.9644 51.4083 45.7456 54.1916 45.7131C56.975 45.6805 58.3797 44.2666 58.4253 41.4843C58.4644 38.715 59.6735 36.6218 62.0592 35.2046C64.4515 33.781 64.9697 31.8665 63.6073 29.4417C62.2515 27.0235 62.2515 24.6052 63.6073 22.1804C64.9697 19.7621 64.4547 17.8509 62.0592 16.4273C59.6735 15.0004 58.4611 12.9104 58.4253 10.1281C58.3797 7.35876 56.975 5.94485 54.1916 5.91235C51.4083 5.87334 49.3094 4.66096 47.8819 2.28169C46.4544 -0.104074 44.5348 -0.620882 42.11 0.73777C39.6851 2.08992 37.2538 2.08992 34.829 0.73777C32.4009 -0.617632 30.4813 -0.104074 29.0538 2.28169C27.6295 4.66421 25.5274 5.8766 22.7473 5.91235C19.9705 5.94485 18.5593 7.35876 18.5202 10.1281C18.4746 12.9104 17.2654 14.9971 14.8797 16.4273C12.4875 17.8509 11.9628 19.7589 13.3316 22.1804C14.6939 24.6052 14.6939 27.0235 13.3316 29.4417C11.9628 31.8665 12.4842 33.7842 14.8797 35.2046C17.2654 36.6218 18.4778 38.715 18.5202 41.4843C18.5593 44.2634 19.9705 45.6805 22.7473 45.7131C25.5306 45.7456 27.6295 46.9644 29.057 49.3437C30.4845 51.7295 32.4042 52.2463 34.829 50.8811C37.2538 49.542 39.6851 49.542 42.11 50.8811C44.5348 52.243 46.4577 51.7295 47.8819 49.3437ZM38.476 41C30.0609 41 23.2427 34.2003 23.2427 25.8078C23.2427 17.4219 30.0609 10.6221 38.476 10.6221C46.8846 10.6221 53.7028 17.4219 53.7028 25.8078C53.7028 34.2003 46.8846 41 38.476 41Z" fill="#4F81DB"/>
<path d="M22.5035 47.9395C19.5768 47.9395 19.1857 46.5808 19.1857 46.5808L7.75586 68.9856L16.9206 67.9585L21.9886 75.5643C21.9886 75.5643 32.5483 53.5918 32.5483 53.7381C27.0761 53.6016 29.2533 48.0857 22.5035 47.9395Z" fill="#4F81DB"/>
<path d="M57.6057 47.4585C49.2558 48.3296 50.9538 50.3968 49.0439 52.0025C46.8472 54.3395 44.103 53.8812 44.103 53.8812L56.993 75.9999L60.1641 67.809L69.179 68.9824L57.6057 47.4585Z" fill="#4F81DB"/>
<path d="M41.657 22.4567L38.4695 16.0209L35.2788 22.4567L28.1445 23.4968L33.3005 28.5121L32.0849 35.6044L38.4695 32.2598L44.8542 35.6044L43.6386 28.5121L48.7945 23.4968L41.657 22.4567Z" fill="#4F81DB"/>
</g>
<defs>
<clipPath id="clip0">
<rect width="76.2056" height="76" fill="white" transform="translate(0.365234)"/>
</clipPath>
</defs>
</svg>
