<svg width="42" height="54" viewBox="0 0 42 54" fill="none" xmlns="http://www.w3.org/2000/svg">
<path d="M21 0C9.42048 0 0 9.42059 0 21C0 28.2165 3.65928 34.594 9.21948 38.3758V51.7317C9.21948 52.2531 9.48384 52.739 9.92175 53.0221C10.3595 53.3052 10.9111 53.3469 11.3866 53.1329L21 48.807L30.6134 53.1329C30.8147 53.2235 31.0295 53.2682 31.2437 53.2682C31.5354 53.2682 31.8257 53.1852 32.0783 53.0221C32.516 52.7391 32.7805 52.2531 32.7805 51.7318V38.3759C38.3407 34.5941 42 28.2166 42 21.0001C42 9.42059 32.5795 0 21 0ZM29.7074 49.3553L21.6306 45.7209C21.4301 45.6306 21.215 45.5854 21.0001 45.5854C20.7851 45.5854 20.5701 45.6305 20.3696 45.7208L12.2928 49.3553V40.113C13.0657 40.4654 13.8591 40.7682 14.6673 41.0234C14.7123 41.0376 14.757 41.0522 14.802 41.0661C14.9057 41.0982 15.0099 41.1289 15.1141 41.1591C15.1902 41.1814 15.2662 41.2036 15.3426 41.225C15.4266 41.2484 15.5109 41.2711 15.5951 41.2936C15.6924 41.3195 15.7901 41.3449 15.8879 41.3695C15.9576 41.387 16.0275 41.4041 16.0975 41.4208C16.2105 41.448 16.3239 41.4741 16.4376 41.4994C16.4966 41.5125 16.5556 41.5254 16.6147 41.538C16.7393 41.5645 16.8643 41.5898 16.9898 41.6142C17.041 41.6242 17.0924 41.6342 17.1437 41.6439C17.2765 41.6686 17.4099 41.6918 17.5437 41.714C17.5896 41.7216 17.6354 41.7296 17.6812 41.7369C17.8195 41.7589 17.9584 41.7792 18.0976 41.7986C18.1405 41.8045 18.1832 41.811 18.2261 41.8166C18.3671 41.8352 18.5086 41.8521 18.6503 41.8679C18.6923 41.8725 18.7342 41.8779 18.7763 41.8823C18.9175 41.8973 19.0595 41.9101 19.2016 41.9223C19.2445 41.9259 19.2873 41.9304 19.3304 41.9337C19.4704 41.9448 19.611 41.9537 19.7517 41.9619C19.7968 41.9646 19.8419 41.9682 19.887 41.9706C20.0293 41.978 20.1721 41.9831 20.3151 41.9877C20.3581 41.9892 20.4008 41.9915 20.4439 41.9926C20.6287 41.9974 20.8141 42.0001 21 42.0001C21.1859 42.0001 21.3713 41.9975 21.5561 41.9926C21.5992 41.9915 21.6419 41.9891 21.685 41.9877C21.8279 41.9831 21.9707 41.9779 22.1129 41.9706C22.1582 41.9682 22.2032 41.9646 22.2485 41.9619C22.3891 41.9536 22.5296 41.9449 22.6695 41.9337C22.7127 41.9303 22.7557 41.9259 22.7989 41.9222C22.9409 41.9101 23.0826 41.8973 23.2236 41.8823C23.266 41.878 23.308 41.8725 23.3503 41.8678C23.4919 41.8518 23.6331 41.8352 23.7738 41.8166C23.8169 41.8109 23.8599 41.8045 23.9031 41.7985C24.042 41.7792 24.1806 41.7589 24.3187 41.7369C24.365 41.7295 24.411 41.7215 24.4572 41.7138C24.5906 41.6915 24.7237 41.6685 24.8561 41.6438C24.9078 41.6341 24.9593 41.624 25.011 41.614C25.136 41.5898 25.2607 41.5645 25.385 41.5381C25.4445 41.5254 25.5039 41.5124 25.5633 41.4991C25.6766 41.474 25.7895 41.448 25.902 41.4209C25.9724 41.4041 26.0427 41.3869 26.1129 41.3693C26.2103 41.3449 26.3074 41.3195 26.4042 41.2937C26.489 41.2711 26.5738 41.2484 26.6582 41.2247C26.7341 41.2034 26.8096 41.1813 26.8852 41.1594C26.9899 41.1289 27.0945 41.098 27.1987 41.0659C27.2431 41.0521 27.2874 41.0377 27.3318 41.0237C28.1407 40.7684 28.9343 40.4656 29.7076 40.113V49.3553H29.7074ZM26.849 37.9462C26.7884 37.9671 26.7277 37.9881 26.6668 38.0084C26.5729 38.0397 26.4787 38.0705 26.3842 38.1003C26.2755 38.1344 26.1666 38.1673 26.0574 38.1993C25.9783 38.2226 25.8991 38.2457 25.8196 38.268C25.6746 38.3085 25.5292 38.3472 25.3831 38.384C25.3281 38.3978 25.2728 38.4111 25.2176 38.4245C25.0743 38.4591 24.9304 38.4922 24.7862 38.5232C24.7496 38.5311 24.7131 38.5395 24.6765 38.5471C24.49 38.586 24.3028 38.6223 24.1149 38.6553C24.0956 38.6587 24.076 38.6617 24.0566 38.6651C23.8874 38.6942 23.7179 38.7208 23.5478 38.745C23.5093 38.7505 23.4707 38.7559 23.432 38.7612C23.2507 38.7859 23.0689 38.8085 22.8867 38.8277C22.8797 38.8284 22.8727 38.8294 22.8656 38.8301C22.6746 38.85 22.4831 38.8663 22.291 38.88C22.2493 38.883 22.2076 38.8852 22.1658 38.888C22.0166 38.8976 21.8673 38.9052 21.7176 38.9113C21.6667 38.9133 21.6158 38.9155 21.5648 38.9171C21.3767 38.923 21.1886 38.927 21 38.927C20.8114 38.927 20.6233 38.9231 20.4353 38.9172C20.3843 38.9156 20.3334 38.9135 20.2826 38.9114C20.1329 38.9054 19.9835 38.8977 19.8343 38.8881C19.7926 38.8854 19.7509 38.8831 19.7092 38.8801C19.5172 38.8662 19.3256 38.85 19.1345 38.8302C19.1276 38.8295 19.1207 38.8286 19.1139 38.8278C18.9314 38.8086 18.7495 38.786 18.568 38.7613C18.5296 38.7561 18.4912 38.7507 18.4527 38.7451C18.2824 38.7208 18.1125 38.6942 17.9431 38.6651C17.924 38.6619 17.9046 38.6589 17.8855 38.6554C17.6975 38.6223 17.5102 38.586 17.3235 38.5471C17.287 38.5395 17.2509 38.5311 17.2146 38.5234C17.07 38.4923 16.9257 38.4591 16.782 38.4244C16.7271 38.411 16.6722 38.3979 16.6175 38.3841C16.4707 38.3472 16.3245 38.3081 16.1787 38.2676C16.1006 38.2457 16.0227 38.2229 15.945 38.2001C15.8349 38.1677 15.725 38.1346 15.6153 38.1002C15.5212 38.0704 15.4274 38.0398 15.3339 38.0086C15.2723 37.9881 15.211 37.9669 15.1498 37.9458C8.12883 35.5152 3.07313 28.8373 3.07313 21.0001C3.07313 11.1153 11.1151 3.07323 21 3.07323C30.8849 3.07323 38.9269 11.1152 38.9269 21.0001C38.9269 28.8376 33.8705 35.5158 26.849 37.9462Z" fill="#4B7FDB"/>
<path d="M13.8292 14.8538H7.6828C6.83415 14.8538 6.14624 15.5418 6.14624 16.3903C6.14624 17.2389 6.83425 17.9269 7.6828 17.9269H9.21936V25.6098C9.21936 26.4585 9.90738 27.1464 10.7559 27.1464C11.6045 27.1464 12.2925 26.4584 12.2925 25.6098V17.9269H13.8291C14.6777 17.9269 15.3656 17.2389 15.3656 16.3903C15.3656 15.5418 14.6778 14.8538 13.8292 14.8538Z" fill="#4B7FDB"/>
<path d="M22.0243 14.8538H19.9755C17.9986 14.8538 16.3901 16.4621 16.3901 18.4392V23.5612C16.3901 25.5381 17.9985 27.1466 19.9755 27.1466H22.0243C24.0013 27.1466 25.6097 25.5382 25.6097 23.5612V18.4392C25.6097 16.4622 24.0014 14.8538 22.0243 14.8538ZM22.5366 23.5612C22.5366 23.8436 22.3069 24.0734 22.0244 24.0734H19.9757C19.6932 24.0734 19.4635 23.8436 19.4635 23.5612V18.4392C19.4635 18.1567 19.6932 17.927 19.9757 17.927H22.0244C22.3069 17.927 22.5366 18.1567 22.5366 18.4392V23.5612Z" fill="#4B7FDB"/>
<path d="M32.2688 14.8538H30.2201C28.2431 14.8538 26.6348 16.4621 26.6348 18.4392V25.6099C26.6348 26.4586 27.3228 27.1465 28.1713 27.1465C29.0199 27.1465 29.7079 26.4585 29.7079 25.6099V22.5367H32.2688C34.2458 22.5367 35.8542 20.9283 35.8542 18.9514V18.4392C35.8542 16.4622 34.2458 14.8538 32.2688 14.8538ZM32.781 18.9514C32.781 19.2338 32.5513 19.4636 32.2688 19.4636H29.7079V18.4392C29.7079 18.1567 29.9376 17.927 30.2201 17.927H32.2688C32.5513 17.927 32.781 18.1567 32.781 18.4392V18.9514Z" fill="#4B7FDB"/>
</svg>
