<svg width="51" height="49" viewBox="0 0 51 49" fill="none" xmlns="http://www.w3.org/2000/svg">
<path d="M49.3987 17.2468L34.1035 15.0344L27.2207 1.08574C26.7605 0.129381 25.6169 -0.270361 24.6665 0.192905C24.2793 0.381637 23.9666 0.696127 23.7793 1.08574L16.8965 15.0344L1.60121 17.2468C0.876809 17.3634 0.282506 17.8865 0.0717187 18.5936C-0.114184 19.2748 0.0669613 20.0044 0.54965 20.5175L11.6387 31.3879L9.05763 46.6832C8.94144 47.4173 9.23512 48.1562 9.82247 48.6072C10.4009 49.05 11.1789 49.1246 11.8299 48.7996L25.5 41.4886L39.17 48.7996L40.0304 48.992C40.449 49.0277 40.8638 48.8885 41.1775 48.6072C41.7646 48.1562 42.0585 47.4173 41.9423 46.6832L39.3612 31.3879L50.4503 20.5175C50.933 20.0044 51.1143 19.2748 50.9282 18.5936C50.7174 17.8867 50.1231 17.3634 49.3987 17.2468ZM35.9198 29.3678C35.5286 29.8152 35.3537 30.4138 35.4419 31.0032L37.545 43.5089L26.3603 37.6409C25.8158 37.3809 25.1841 37.3809 24.6396 37.6409L13.4549 43.5089L15.558 31.0032C15.6462 30.4138 15.4713 29.8154 15.0801 29.3678L5.99847 20.5177L18.5215 18.6899C19.137 18.581 19.6673 18.1898 19.9554 17.6317L25.5 6.28036L31.0445 17.6317C31.3327 18.1898 31.8627 18.581 32.4785 18.6899L45.0015 20.5177L35.9198 29.3678Z" fill="#79B300"/>
</svg>
