<svg width="25" height="25" viewBox="0 0 25 25" fill="none" xmlns="http://www.w3.org/2000/svg">
<g opacity="0.8" clip-path="url(#clip0)">
<path d="M23.0769 2.14746H1.9231C0.844873 2.14746 0 2.99233 0 4.07056V20.9295C0 22.0078 0.844873 22.8526 1.9231 22.8526H23.077C24.1552 22.8526 25 22.0078 25 20.9295V4.07056C25 2.99233 24.1551 2.14746 23.0769 2.14746ZM23.0769 20.9295H1.9231L1.90835 4.07183C1.90835 4.07183 1.91284 4.07056 1.9231 4.07056H23.077V20.9295H23.0769Z" fill="#4B7FDB"/>
<path d="M9.55425 8.26445C9.22988 7.87246 8.65552 7.80195 8.24463 8.10322L0.39209 13.8725L1.53086 15.4225L8.65264 10.1901L18.7792 22.4083L20.2594 21.1811L9.55425 8.26445Z" fill="#4B7FDB"/>
<path d="M18.8015 9.11801C18.4512 8.84077 17.9563 8.84174 17.6063 9.11962L13.0551 12.7414L14.2525 14.2462L18.207 11.0994L23.4419 15.2414L24.6348 13.7334L18.8015 9.11801Z" fill="#4B7FDB"/>
</g>
<defs>
<clipPath id="clip0">
<rect width="25" height="25" fill="white"/>
</clipPath>
</defs>
</svg>
